<?xml version="1.0" encoding="UTF-8" standalone="no"?>
<!DOCTYPE svg PUBLIC "-//W3C//DTD SVG 1.1//EN" "http://www.w3.org/Graphics/SVG/1.1/DTD/svg11.dtd">
<svg width="100%" height="100%" viewBox="0 0 337 128" version="1.1" xmlns="http://www.w3.org/2000/svg" xmlns:xlink="http://www.w3.org/1999/xlink" xml:space="preserve" xmlns:serif="http://www.serif.com/" style="fill-rule:evenodd;clip-rule:evenodd;stroke-linejoin:round;stroke-miterlimit:2;">
    <g transform="matrix(0.363235,0,0,0.363235,-151.092,-42.0775)">
        <path d="M505.441,115.841L415.962,466.874L1342.22,397.06L1300.92,143.374L505.444,115.841L505.441,115.841Z" style="fill:white;"/>
    </g>
    <g transform="matrix(0.0871765,0,0,0.0871765,-148.003,-699.514)">
        <path d="M2896.91,8445.66C2824.51,8372.96 2724.49,8327.97 2614.1,8327.97C2393.45,8327.97 2214.23,8507.71 2214.23,8729.18C2214.23,8950.66 2393.45,9130.4 2614.11,9130.4C2799.16,9130.4 2955.08,9003.97 3000.55,8832.55L4981.98,8778.71L4887.57,8292.05L2896.91,8445.66ZM2614.1,8368.72C2812.3,8368.72 2973.22,8530.24 2973.22,8729.18C2973.22,8928.13 2812.3,9089.65 2614.11,9089.65C2415.9,9089.65 2254.98,8928.13 2254.98,8729.18C2254.98,8530.24 2415.9,8368.72 2614.1,8368.72ZM2587.01,8481.55C2538.47,8486.02 2501.79,8494.17 2474.55,8502.88L2469.57,8448.77L2434.45,8452.01L2440.35,8516.02C2415.69,8527.46 2406.18,8537.02 2406.18,8537.02C2406.18,8537.02 2420.75,8534.44 2442.03,8534.17L2472.7,8867.08C2465.86,8882.99 2462.24,8901.52 2464.25,8923.3C2469.78,8983.41 2503.81,9034.77 2503.81,9034.77C2503.81,9034.77 2491.91,9001.79 2489.9,8978.16C2483.37,8901.65 2510.91,8858.16 2643.73,8823.67C2700.63,8808.89 2877.45,8780.33 2863.82,8647.42C2855.61,8567.16 2795.7,8462.32 2587.01,8481.55ZM3103.54,8938.25L3104.85,8987.07L3071.58,8987.96L3068.13,8858.95L3118.93,8857.59C3135.93,8857.14 3148.46,8859.66 3156.53,8865.15C3164.61,8870.64 3168.81,8879.55 3169.14,8891.87C3169.37,8900.4 3167.49,8907.45 3163.52,8913.03C3159.55,8918.62 3153.45,8922.82 3145.22,8925.63C3149.8,8926.55 3153.94,8928.78 3157.64,8932.34C3161.34,8935.91 3165.13,8941.35 3169.01,8948.69L3188.06,8984.84L3152.63,8985.79L3136.04,8954.15C3132.7,8947.78 3129.37,8943.46 3126.06,8941.19C3122.74,8938.91 3118.37,8937.85 3112.96,8937.99L3103.54,8938.25ZM3204.39,8855.3L3294.17,8852.9L3294.84,8878.05L3238.33,8879.56L3238.97,8903.58L3292.11,8902.16L3292.79,8927.3L3239.65,8928.72L3240.44,8958.27L3298.85,8956.71L3299.52,8981.85L3207.84,8984.31L3204.39,8855.3ZM3430.85,8971.25C3424.83,8974.58 3418.52,8977.14 3411.94,8978.93C3405.36,8980.72 3398.47,8981.71 3391.27,8981.91C3369.78,8982.48 3352.6,8976.93 3339.72,8965.26C3326.84,8953.58 3320.13,8937.46 3319.58,8916.9C3319.02,8896.28 3324.87,8879.79 3337.1,8867.45C3349.34,8855.1 3366.2,8848.64 3387.69,8848.06C3394.89,8847.87 3401.82,8848.49 3408.49,8849.93C3415.16,8851.36 3421.59,8853.58 3427.78,8856.59L3428.49,8883.29C3422.22,8879.25 3416.06,8876.33 3410.01,8874.53C3403.97,8872.73 3397.64,8871.92 3391.01,8872.1C3379.14,8872.42 3369.91,8876.47 3363.32,8884.25C3356.73,8892.04 3353.61,8902.61 3353.97,8915.98C3354.32,8929.28 3358,8939.65 3365,8947.07C3372,8954.49 3381.44,8958.05 3393.3,8957.73C3399.93,8957.55 3406.21,8956.4 3412.15,8954.28C3418.09,8952.17 3424.08,8948.92 3430.13,8944.55L3430.85,8971.25ZM3455.15,8848.59L3488.41,8847.7L3489.68,8894.79L3536.37,8846.42L3574.99,8845.38L3514.5,8908.14L3584.84,8974.22L3543.19,8975.33L3490.51,8925.9L3491.87,8976.71L3458.6,8977.6L3455.15,8848.59ZM3592.28,8844.92L3625.55,8844.03L3628.33,8947.89L3686.74,8946.33L3687.41,8971.47L3595.73,8973.93L3592.28,8844.92ZM3705.04,8841.9L3738.31,8841.01L3741.76,8970.02L3708.5,8970.91L3705.04,8841.9ZM3770.89,8840.14L3808.04,8839.15L3857.33,8926.37L3854.96,8837.89L3886.5,8837.05L3889.95,8966.05L3852.8,8967.05L3803.51,8879.82L3805.88,8968.3L3774.34,8969.15L3770.89,8840.14ZM4038.14,8952.49C4029.96,8956.74 4021.43,8960 4012.55,8962.25C4003.68,8964.51 3994.49,8965.76 3984.98,8966.01C3963.5,8966.59 3946.31,8961.04 3933.43,8949.37C3920.56,8937.69 3913.84,8921.57 3913.29,8901.01C3912.73,8880.21 3918.69,8863.68 3931.16,8851.41C3943.63,8839.15 3960.98,8832.72 3983.22,8832.12C3991.8,8831.89 4000.04,8832.48 4007.95,8833.88C4015.86,8835.28 4023.34,8837.48 4030.39,8840.46L4031.11,8867.16C4023.8,8863.26 4016.56,8860.4 4009.39,8858.57C4002.22,8856.75 3995.06,8855.93 3987.92,8856.12C3974.67,8856.48 3964.56,8860.45 3957.59,8868.04C3950.61,8875.64 3947.31,8886.32 3947.68,8900.09C3948.05,8913.74 3951.78,8924.19 3958.89,8931.43C3966.01,8938.68 3975.93,8942.13 3988.66,8941.79C3992.11,8941.7 3995.32,8941.4 3998.28,8940.89C4001.23,8940.37 4003.88,8939.63 4006.21,8938.64L4005.54,8913.58L3985.24,8914.13L3984.64,8891.83L4036.48,8890.45L4038.14,8952.49ZM4064.24,8832.29L4097.51,8831.4L4098.83,8880.56L4147.9,8879.25L4146.59,8830.08L4179.86,8829.19L4183.31,8958.2L4150.04,8959.09L4148.58,8904.39L4099.5,8905.71L4100.96,8960.4L4067.7,8961.29L4064.24,8832.29ZM4293.46,8931.73L4241.44,8933.12L4233.86,8956.84L4200.42,8957.74L4244.75,8827.46L4284.41,8826.39L4335.65,8954.12L4302.21,8955.02L4293.46,8931.73ZM4343.86,8824.8L4377.13,8823.91L4379.2,8901.25C4379.48,8911.9 4381.43,8919.48 4385.04,8923.96C4388.64,8928.45 4394.39,8930.59 4402.29,8930.37C4410.23,8930.16 4415.89,8927.72 4419.25,8923.05C4422.62,8918.37 4424.15,8910.71 4423.87,8900.05L4421.8,8822.72L4455.07,8821.83L4457.14,8899.16C4457.63,8917.42 4453.41,8931.14 4444.49,8940.31C4435.57,8949.49 4421.72,8954.32 4402.94,8954.83C4384.22,8955.33 4370.16,8951.24 4360.76,8942.55C4351.36,8933.87 4346.42,8920.4 4345.93,8902.14L4343.86,8824.8ZM4577.44,8822.61L4578.17,8849.92C4571,8846.94 4564.03,8844.74 4557.24,8843.3C4550.46,8841.87 4544.07,8841.23 4538.08,8841.39C4530.13,8841.61 4524.29,8842.86 4520.55,8845.15C4516.8,8847.44 4514.99,8850.89 4515.11,8855.5C4515.21,8858.95 4516.56,8861.61 4519.18,8863.47C4521.79,8865.34 4526.49,8866.87 4533.26,8868.07L4547.51,8870.54C4561.93,8873.04 4572.24,8877.14 4578.45,8882.86C4584.66,8888.57 4587.9,8896.84 4588.19,8907.67C4588.57,8921.9 4584.64,8932.6 4576.39,8939.76C4568.13,8946.93 4555.34,8950.75 4538,8951.21C4529.82,8951.43 4521.59,8950.87 4513.31,8949.54C4505.03,8948.2 4496.73,8946.12 4488.41,8943.29L4487.66,8915.2C4496.01,8919.36 4504.07,8922.45 4511.82,8924.46C4519.57,8926.47 4527.01,8927.38 4534.15,8927.19C4541.41,8927 4546.94,8925.64 4550.73,8923.11C4554.53,8920.59 4556.37,8917.08 4556.25,8912.59C4556.14,8908.56 4554.74,8905.48 4552.06,8903.36C4549.39,8901.25 4544.11,8899.43 4536.22,8897.91L4523.27,8895.4C4510.3,8892.98 4500.74,8888.83 4494.62,8882.94C4488.5,8877.05 4485.3,8868.98 4485.02,8858.73C4484.68,8845.88 4488.56,8835.89 4496.67,8828.75C4504.78,8821.62 4516.61,8817.84 4532.17,8817.43C4539.25,8817.24 4546.55,8817.58 4554.07,8818.44C4561.59,8819.31 4569.38,8820.7 4577.44,8822.61ZM4615.01,8817.55L4704.79,8815.14L4705.46,8840.29L4648.95,8841.8L4649.59,8865.82L4702.73,8864.4L4703.41,8889.54L4650.27,8890.96L4651.06,8920.52L4709.47,8918.95L4710.14,8944.1L4618.46,8946.55L4615.01,8817.55ZM4735.9,8814.31L4773.05,8813.32L4822.34,8900.54L4819.97,8812.06L4851.51,8811.22L4854.96,8940.22L4817.81,8941.22L4768.52,8853.99L4770.89,8942.47L4739.35,8943.32L4735.9,8814.31ZM3116.92,8914.89C3123.89,8914.7 3128.85,8913.27 3131.81,8910.6C3134.76,8907.93 3136.16,8903.62 3136,8897.69C3135.85,8891.81 3134.22,8887.65 3131.13,8885.19C3128.04,8882.74 3123.01,8881.61 3116.03,8881.79L3102.04,8882.17L3102.92,8915.26L3116.92,8914.89ZM4249.09,8908.97L4284.43,8908.02L4265.43,8857.17L4249.09,8908.97ZM2543.36,8791.37C2532.1,8799.8 2517.6,8810.05 2504.06,8823.19L2477.61,8536.06C2531.12,8542.69 2596.47,8569.42 2604.72,8659.03C2608.07,8695.35 2607.71,8743.22 2543.36,8791.37ZM3063.01,8494.64L3182.46,8486.28C3217.97,8483.8 3245.78,8489.78 3265.89,8504.21C3286,8518.65 3297.07,8540.44 3299.11,8569.61C3301.16,8598.89 3293.23,8622.08 3275.33,8639.17C3257.43,8656.27 3230.72,8666.06 3195.2,8668.54L3147.72,8671.86L3154.49,8768.69L3082.53,8773.73L3063.01,8494.64ZM3343.59,8475.01L3415.56,8469.98L3435.08,8749.07L3363.11,8754.1L3343.59,8475.01ZM3570.13,8633.49L3577.51,8739.11L3505.55,8744.14L3486.03,8465.05L3595.94,8457.37C3632.7,8454.8 3660.09,8459.08 3678.08,8470.22C3696.08,8481.36 3706.01,8500.26 3707.88,8526.93C3709.17,8545.37 3705.77,8560.83 3697.69,8573.29C3689.61,8585.75 3676.79,8595.41 3659.24,8602.28C3669.24,8603.83 3678.41,8608.29 3686.75,8615.66C3695.1,8623.03 3703.82,8634.47 3712.92,8649.99L3757.53,8726.52L3680.89,8731.88L3642.01,8664.91C3634.18,8651.43 3626.57,8642.38 3619.17,8637.76C3611.77,8633.15 3602.22,8631.25 3590.5,8632.07L3570.13,8633.49ZM3966.14,8660.83L3853.6,8668.7L3839.4,8720.79L3767.06,8725.85L3850.91,8439.53L3936.71,8433.53L4059.61,8705.39L3987.26,8710.45L3966.14,8660.83ZM4014.1,8428.12L4271.32,8410.13L4275.12,8464.53L4182.59,8471L4198.31,8695.69L4126.34,8700.72L4110.62,8476.03L4017.91,8482.52L4014.1,8428.12ZM4308.51,8407.53L4502.73,8393.95L4506.54,8448.34L4384.29,8456.89L4387.92,8508.86L4502.88,8500.82L4506.69,8555.22L4391.73,8563.26L4396.2,8627.19L4522.56,8618.35L4526.37,8672.75L4328.03,8686.62L4308.51,8407.53ZM4570.03,8389.24L4650.41,8383.62L4765.3,8567.94L4751.91,8376.52L4820.14,8371.75L4839.66,8650.84L4759.28,8656.46L4644.39,8472.14L4657.78,8663.56L4589.55,8668.33L4570.03,8389.24ZM3138.62,8541.76L3144.08,8619.71L3183.89,8616.92C3197.85,8615.95 3208.39,8611.8 3215.52,8604.48C3222.64,8597.15 3225.77,8587.26 3224.9,8574.8C3224.03,8562.33 3219.56,8553 3211.49,8546.81C3203.41,8540.61 3192.4,8538 3178.44,8538.97L3138.62,8541.76ZM3867.93,8615.67L3944.38,8610.32L3898.48,8501.95L3867.93,8615.67ZM3596.93,8581.65C3612.01,8580.6 3622.63,8577.04 3628.78,8570.97C3634.93,8564.91 3637.55,8555.45 3636.66,8542.62C3635.77,8529.91 3631.86,8521.04 3624.93,8516.01C3618.01,8510.99 3607.01,8509 3591.93,8510.06L3561.64,8512.17L3566.65,8583.77L3596.93,8581.65Z" style="fill:rgb(46,42,41);"/>
    </g>
</svg>
