<?xml version="1.0" encoding="UTF-8" standalone="no"?>
<!DOCTYPE svg PUBLIC "-//W3C//DTD SVG 1.1//EN" "http://www.w3.org/Graphics/SVG/1.1/DTD/svg11.dtd">
<svg width="100%" height="100%" viewBox="0 0 676 732" version="1.1" xmlns="http://www.w3.org/2000/svg" xmlns:xlink="http://www.w3.org/1999/xlink" xml:space="preserve" xmlns:serif="http://www.serif.com/" style="fill-rule:evenodd;clip-rule:evenodd;stroke-linejoin:round;stroke-miterlimit:2;">
    <g id="Logo" transform="matrix(1.41876,0,0,1.44408,-49.0084,-14.3364)">
        <path d="M198.875,9.938C197.812,9.997 197.756,10.316 197.937,11.188C198.218,12.544 198.725,14.811 201.187,17.876C202.333,19.301 202.988,24.015 201.562,28.314C200.755,30.746 198.359,32.975 196.968,35.439C195.392,38.231 194.812,41.29 193.812,44.252C192.59,47.875 188.553,48.007 186.624,51.127C183.775,55.735 184.204,58.721 181.343,62.252C178.299,66.006 175.297,67.916 173.812,68.096C173.632,68.117 172.057,69.627 171.718,69.627C171.718,71.11 168.093,73.857 168.093,77.408C166.728,77.408 165.841,94.626 165.53,96.564C164.968,100.07 161.327,104.83 156.342,109.002C152.211,112.46 147.078,115.29 142.654,118.69C134.037,125.31 128.175,132.66 128.81,133.44C129.375,134.137 133.678,133.532 137.748,131.659C141.339,130.007 144.525,127.063 147.311,127.94C149.181,128.53 142.858,142.86 142.78,143.659C142.493,146.576 141.614,149.514 141.499,152.065C141.294,156.613 142.156,159.996 143.437,160.065C146.438,160.227 149.705,148.587 155.718,139.221C161.733,129.855 170.496,122.749 175.718,118.033C180.781,113.462 185.063,107.83 185.656,103.814C185.745,103.202 186.658,100.267 186.875,96.126C187.104,91.718 186.715,85.929 188.969,80.095C190.815,75.317 197.134,70.304 200.125,67.189C204.1,63.049 207.169,58.903 207.375,59.814C209.452,68.974 209.726,80.788 212.156,91.47C213.976,99.472 217.527,109.379 216.625,117.283C216.416,119.107 215.764,118.926 215.031,120.752C212.815,126.285 208.708,132.205 204.437,139.283C198.768,148.679 192.51,159.606 186.843,169.471C184.697,173.207 181.633,175.254 178.999,177.752C175.021,181.523 171.557,185.035 170.249,186.721C168.105,189.484 167.062,192.446 167.78,193.034C168.094,193.292 169.307,193.052 170.655,192.003C171.703,191.187 172.725,189.652 174.218,188.972C175.993,188.162 173.662,199.853 175.124,211.128C176.564,222.246 181.383,232.291 183.905,234.253C184.653,234.834 189.47,241.541 190.311,245.378C190.466,246.089 189.795,246.834 189.78,247.191C189.284,257.758 163.597,229.116 156.124,213.753C152.597,206.501 148.134,191.63 148.374,183.94C148.605,176.505 151.458,169.114 154.405,166.096C155.083,165.401 155.751,164.522 156.218,163.846C156.893,162.868 155.962,162.2 155.499,162.221C153.493,162.313 148.119,171.627 147.968,171.627C147.968,176.082 139.536,178.68 137.593,181.44C136.736,182.657 132.781,184.881 128.968,187.534C126.68,189.125 124.827,191.553 122.687,192.097C121.985,192.276 121.216,191.369 120.562,191.316C120.072,191.275 119.096,190.143 118.749,189.816C118.423,189.508 116.938,184.149 116.936,184.066C116.852,181.889 111.175,163.145 105.748,145.878C101.029,130.861 96.709,116.827 95.123,117.284C94.413,117.488 95.267,120.584 95.248,131.784C95.248,131.844 82.135,158.547 81.154,161.565C80.949,162.194 79.296,174.719 77.029,188.159C75.758,195.699 76.331,204.652 75.279,211.409C74.429,216.863 73.727,222.175 72.716,222.878C70.726,224.261 72.42,227.218 72.497,227.284C73.601,228.239 78.445,219.507 80.435,212.128C82.308,205.177 83.873,197.232 83.873,193.378C83.896,193.378 88.281,170.597 90.092,170.597C90.092,165.294 99.315,146.618 101.967,149.909C103.137,151.362 104.486,154.289 104.811,158.815C105.081,162.565 104.474,167.467 104.061,173.034C103.021,187.059 101.173,200.566 99.655,214.347C97.939,229.92 93.82,273.977 93.686,274.628C92.901,278.459 91.608,295.127 89.873,311.972C87.793,332.175 85.936,352.728 85.935,352.785C85.879,360.134 73.747,346.744 73.029,346.597C69.505,345.878 39.653,317.898 34.904,318.909C34.126,319.074 34.688,320.991 35.81,322.753C38.102,326.355 60.718,345.064 72.216,354.909C77.582,359.503 78.517,358.376 78.716,362.722C78.856,365.785 67.509,371.694 61.935,376.785C59.595,378.922 57.822,380.403 59.06,382.285C59.44,382.863 61.59,381.926 61.498,382.816C60.151,395.75 62.976,401.556 64.592,404.722C66.174,407.824 67.542,411.324 70.092,414.66C76.311,422.797 88.012,431.127 97.842,434.066C100.256,434.788 107.895,438.804 118.186,439.16C125.939,439.429 134.013,438.067 136.967,438.129C141.033,438.214 137.596,440.857 135.936,445.129C134.227,449.527 134.108,454.649 134.123,459.535C134.125,460.337 135.399,469.117 135.029,469.254C134.9,469.302 134.762,469.333 134.623,469.379C131.476,470.417 128.357,469.983 125.498,470.785C121.036,472.034 116.978,474.691 112.685,478.191C108.727,481.419 106.247,486.708 104.247,490.754C102.713,493.858 101.18,496.061 101.153,497.004C101.136,497.582 103.384,496.661 105.309,495.191C106.91,493.968 107.415,492.581 108.528,492.097C111.687,490.724 114.371,491.759 114.591,493.91C114.796,495.918 112.882,497.962 111.028,499.785C103.957,506.74 93.438,498.37 87.934,492.785C86.204,491.03 86.037,489.626 85.246,489.285C84.014,488.755 82.76,489.696 81.871,491.598C81.302,492.817 81.183,494.541 80.371,496.161C79.039,498.815 76.993,499.774 72.715,503.38C69.304,506.256 59.321,505.913 60.965,502.942C61.199,502.517 62.628,502.394 63.215,501.848C64.217,500.915 63.743,500.398 63.465,499.785C62.893,498.533 61.201,497.692 61.121,497.691C58.713,497.659 56.784,497.125 55.371,498.097C53.491,499.39 53.019,501.824 52.558,504.253C52.097,506.682 51.641,509.113 52.152,511.066C52.858,513.769 54.925,515.779 55.996,515.847C56.202,515.861 57.509,516.282 60.402,516.503L497.34,516.722C499.507,515.852 501.536,516.266 503.153,515.378C507.994,512.719 509.477,508.206 510.622,501.159C511.247,497.314 509.502,492.47 508.809,491.065C507.912,489.249 506.855,487.967 505.496,486.377C501.417,481.607 494.601,478.217 487.746,478.439C481.491,478.641 476.383,482.065 475.715,486.47C475.448,488.216 476.318,490.886 476.559,492.033C476.704,492.732 477.342,495.596 479.028,497.658C480.475,499.431 483.4,500.101 486.091,499.533C488.465,499.031 490.641,497.5 491.872,496.095C493.776,493.922 492.532,489.727 492.091,488.157C491.664,486.642 491.112,488.494 491.028,489.97C490.995,490.561 490.444,491.514 490.059,491.783C487.599,493.493 483.375,494.182 483.278,489.47C483.102,481.063 506.736,486.956 498.278,500.189C496.555,502.883 492.856,503.461 490.215,503.439C483.222,503.377 475.76,501.418 469.34,498.689C461.52,495.363 451.53,489.682 442.184,485.095C433.672,480.917 425.287,478.975 421.559,475.282C419.649,473.39 419.794,470.623 420.246,469.251C420.58,468.236 420.965,466.984 421.996,465.688C424.265,462.838 427.836,459.227 427.871,453.75C427.899,449.281 425.969,443.619 423.496,441.625C421.669,440.152 418.091,439.703 415.746,438.406C414.828,437.898 414.526,437.052 413.965,436.281C413.227,435.27 413,433.795 412.34,432.531C411.321,430.584 410.499,428.647 408.621,427.312C406.084,425.51 402.74,426.107 398.433,423.343C396.632,422.187 397.995,418.273 393.183,416.218C391.702,415.587 390.534,416.523 388.714,415.405C388.351,415.182 388.193,412.518 386.339,410.436C384.702,408.598 381.358,407.393 380.995,406.53C380.202,404.651 381.312,400.31 380.964,396.28C380.843,394.882 378.77,388.249 379.808,385.124C380.466,383.138 384.202,382.726 387.152,382.53C390.56,382.302 395.259,382.957 400.215,383.249C411.641,383.921 425.045,386.312 430.653,386.718C431.912,386.81 432.792,386.894 433.153,386.937C449.764,388.899 470.183,405.902 474.059,404.812C476.349,404.169 466.469,396.666 465.059,395.812C462.727,394.399 453.203,389.376 444.934,382.031C435.852,373.964 427.794,364.285 426.934,363.656C424.673,362.008 414.959,350.823 409.715,341.062C407.634,337.191 405.869,330.685 404.434,326.187C401.932,318.341 398.307,302.998 397.621,288.218C397.183,278.791 398.602,270.04 398.996,266.155C401.775,238.67 416.596,198.753 428.559,176.436C431.819,170.353 436.046,164.259 439.34,158.467C441.462,154.735 442.911,150.475 444.903,147.217C447.071,143.667 450.639,141.776 452.403,139.029C455.674,133.93 458.084,130.497 458.997,129.685C460.455,128.383 457.95,128.422 456.653,129.091C454.985,129.951 452.947,131.237 452.778,131.779C452.195,133.642 442.995,141.675 434.778,153.529C433.771,154.982 432.074,154.793 430.809,156.154C429.628,157.423 429.569,159.189 428.59,160.873C427.669,162.454 425.821,163.944 424.621,165.154C421.131,168.674 415.867,171.319 412.402,174.748C409.361,177.759 406.144,180.453 403.714,183.467C396.5,192.414 390.086,198.13 387.308,200.03C384.763,201.771 382.61,203.559 381.089,204.999C379.746,206.27 379.218,207.654 378.401,207.499C377.679,207.362 377.648,205.07 377.651,203.905C377.659,200.133 377.954,195.148 376.901,193.936C375.897,192.784 373.597,193.155 372.651,191.123C371.099,187.796 372.532,179.081 373.495,171.217C374.228,165.214 374.319,159.575 375.276,157.654C375.562,157.08 376.111,154.186 376.057,150.498C376.01,147.243 375.322,143.375 376.088,139.935C376.352,138.745 376.791,138.228 376.869,136.435C377.001,133.444 377.088,130.668 376.932,128.716C376.673,125.482 376.308,124.891 375.276,126.341C374.365,127.622 371.183,142.47 369.432,157.122C367.749,171.19 366.509,184.766 366.494,185.091C366.17,191.691 362.983,192.164 361.869,192.341C360.878,192.497 360.378,193.41 359.65,193.81C355.198,196.248 355.798,202.343 357.244,209.248C357.824,212.023 359.861,215.571 360.932,216.779C363.286,219.437 364.603,218.392 361.87,226.498C361.742,226.877 360.904,228.731 359.307,230.936C356.971,234.158 353.022,238.351 349.244,243.749C346.703,247.38 344.459,252.102 341.806,255.968C332.885,268.967 324.028,280.721 323.618,280.843C323.453,280.892 316.245,292.344 311.555,298.749C309.181,301.988 308.11,300.763 307.555,302.593C307.307,303.411 307.905,305.911 308.243,307.531C308.459,307.491 308.654,307.471 308.649,307.625C308.541,310.489 311.155,317.939 310.743,318.188C310.693,318.218 318.876,337.973 322.118,342.594C322.745,343.489 323.148,343.98 323.774,344.969C324.6,346.279 325.708,348.595 327.43,350.407C330.72,353.864 335.048,356.885 335.524,357.532C336.339,358.645 340.245,364.655 342.587,366.688C342.946,367.001 343.929,367.824 344.306,368.094C344.58,368.289 347.452,369.436 347.65,370.625C347.715,371.021 348.45,372.563 347.4,372.563C347.4,372.135 343.995,370.465 342.712,369.188C342.081,368.561 340.602,367.461 340.212,367C338.31,364.76 335.558,360.545 333.837,358.187C329.892,352.787 323.59,350.957 320.931,343.531C320.457,342.209 319.748,341.593 318.993,340.468C317.713,338.566 315.235,334.566 313.524,330.53C311.917,326.739 311.044,322.888 310.555,321.686C309.95,320.194 307.764,310.864 307.43,308.405C307.819,309.005 308.121,308.626 308.305,308.874C308.585,309.251 308.448,308.519 308.242,307.53C307.894,307.594 307.445,307.778 307.398,307.811C307.361,307.838 307.385,308.045 307.429,308.374C307.208,308.024 306.95,307.392 306.648,306.124C301.642,285.232 300.522,269.32 302.054,247.28C302.359,242.877 301.465,238.816 301.991,234.217C303.633,219.882 306.007,205.799 310.554,191.748C317.12,171.457 327.1,151.44 335.929,132.81C340.88,122.362 344.689,114.001 346.867,113.122C347.259,112.963 351.117,110.627 354.273,107.809C356.043,106.228 357.11,103.779 357.742,102.778C359.048,100.706 359.858,98.534 359.867,98.403C360.149,94.263 323.712,126.192 322.586,128.653C322.07,129.781 313.787,128.482 307.898,128.122C292.277,127.167 279.252,120.408 277.242,102.528C276.239,93.607 278.548,84.355 279.68,82.09C280.513,80.426 280.498,78.898 281.68,76.996C284.701,72.137 289.735,66.541 293.586,62.683C297.753,58.507 302.045,55.352 300.867,53.183C298.817,49.414 285.75,65.334 282.148,69.746C279.51,72.975 275.149,77.443 270.492,80.965C262.19,87.244 253.162,92.181 252.836,93.465C252.681,94.074 247.653,96.873 242.367,100.371C234.385,105.654 224.733,111.812 224.429,112.09C223.876,112.596 222.492,112.338 221.929,112.059C220.818,111.508 220.601,110.346 220.116,109.09C218.877,105.883 218.773,101.489 218.741,100.715C218.08,85.179 213.204,66.852 209.741,49.277C208.244,41.681 206.487,34.214 206.303,27.183C206.239,24.715 203.74,19.872 203.803,15.995C203.854,12.783 206.045,10.251 205.897,10.245C202.016,10.085 199.939,9.879 198.875,9.938ZM377.969,476.031C378.768,475.972 380.736,477.061 383.219,478.25C387.497,480.299 393.288,483.291 397.032,485.906C398.014,486.594 399.151,487.373 400.157,487.812C400.89,488.133 401.451,488.352 401.345,488.718C401.255,489.024 400.594,489.753 399.564,489.749C398.466,489.745 397.16,488.72 394.345,487.28C391.342,485.747 388.133,483.818 387.251,483.217C386.174,482.488 383.736,480.934 381.782,479.686C380.831,479.08 380.178,478.448 379.501,478.186C378.733,477.888 377.991,477.974 377.22,477.498C376.446,477.023 376.325,476.151 377.969,476.031ZM181,481.188C186.119,481.357 196.23,485.152 197.531,485.469C200.042,486.084 202.18,486.306 201.937,487.219C200.879,491.196 195.953,488.858 192.906,488.094C189.01,487.117 184.593,486.715 182.218,485.906C176.158,483.844 177.497,481.07 181,481.188ZM356.313,444.406C359.592,444.544 367.015,449.489 376.188,455.719C382.723,460.158 392.05,464.646 398.719,468.969C406.311,473.891 416.735,479.458 424.969,483.907C429.287,486.24 433.947,488.209 431.625,487.97C431.198,487.926 428.57,487.036 426.687,486.251C423.652,484.986 420.425,482.551 416.906,480.501C411.925,477.601 406.599,474.918 402.562,472.47C398.498,470.006 393.765,467.691 389.531,465.032C381.343,459.894 374.061,455.371 370.593,453.844C367.636,452.541 364.715,450.974 362.937,449.719C360.164,447.762 359.108,446.3 356.406,446.563C353.646,446.83 350.669,449.797 345.781,453.282C341.523,456.315 336.532,458.098 332.343,459.907C330.613,460.653 329.21,463.105 327.249,462.97C326.311,462.906 325.477,462.652 324.811,462.157C324.3,461.778 330.3,459.017 336.999,455.532C341.293,453.297 345.768,450.553 349.343,448.626C352.654,446.841 354.698,444.951 355.156,444.657C355.448,444.469 355.844,444.387 356.313,444.406ZM127.813,472.969L134.032,472.969C134.032,474.649 135.563,475.434 135.563,477.094C136.843,477.094 136.698,479.688 137.626,479.688C137.626,481.192 135.563,479.371 135.563,478.125C134.594,478.125 134.626,476.594 133,476.594C133,475.539 130.937,476.085 130.937,475.031C129.464,475.031 124.718,474.998 124.718,476.594C123.205,476.594 123.011,477.625 121.093,477.625C121.093,478.718 118.53,478.913 118.53,480.188C117.458,480.188 116.708,482.813 114.905,482.813C114.905,484.566 112.811,484.837 112.811,485.907C111.627,485.907 112.208,487.438 111.28,487.438C111.28,486.338 111.785,483.844 112.811,483.844C112.811,482.016 115.436,481.406 115.436,480.188C116.942,480.188 117.263,478.657 119.03,478.657C119.03,478.018 121.093,477.678 121.093,476.594C122.491,476.594 122.826,475.563 124.218,475.563C124.218,474.483 126.781,475.211 126.781,474C127.221,474 127.813,473.395 127.813,472.969ZM156.031,478.688C157.375,478.711 157.665,480.676 157.656,484.501C157.653,485.382 157.595,486.881 156.468,487.157C155.23,487.461 153.672,486.577 153.03,486.188C149.559,484.085 153.465,478.642 156.031,478.688ZM175.688,473.125C176.839,473.179 178.966,474.046 182.157,474.188C185.379,474.332 188.383,474.229 191.501,474.844C194.22,475.38 196.926,475.941 198.595,477.032C200.033,477.974 199.948,480.385 200.783,481.251C202.822,483.367 202.831,483.955 201.252,483.532C200.585,483.352 199.983,482.831 198.564,482.438C196.47,481.859 193.567,480.106 190.251,479.438C186.533,478.691 181.733,478.475 178.626,477.782C175.298,477.04 174.914,476.553 174.72,475.219C174.472,473.538 174.791,473.083 175.688,473.125ZM297.719,476.875C298.255,476.892 298.765,477.084 299.032,477.438C299.467,478.017 296.392,480.435 295.907,480.719C295.335,481.053 294.272,481.192 293.313,481.594C291.793,482.232 290.317,483.102 289.75,483.157C286.657,483.458 289.938,482.134 291.688,480.751C293.307,479.472 294.458,479.231 296.282,477.376C296.626,477.024 297.182,476.858 297.719,476.875ZM238.375,468.313C239.354,468.313 240.438,468.455 240.438,469.344C238.209,469.344 238.306,472.469 236.844,472.469C236.844,474.662 233.75,474.909 233.75,476.063C231.641,476.063 230.577,478.126 228.062,478.126C228.062,479.047 225.499,478.905 225.499,480.189C223.605,480.189 223.745,482.314 221.843,482.314C221.843,481.334 220.824,480.751 221.843,480.751C221.843,479.158 225.499,478.889 225.499,477.626C226.378,477.626 229.093,476.368 229.093,475.563C229.971,475.563 232.687,474.304 232.687,473.5L233.75,473.5C233.75,472.576 238.375,470.459 238.375,468.313ZM152.281,468.625C152.761,468.618 153.236,468.714 153.656,468.969C154.127,469.255 154.036,469.918 154.25,470.375C154.719,471.381 155.124,472.438 155.344,473.656C155.593,475.039 154.735,475.426 154.031,476.375C153.55,477.025 153.689,478.44 152.093,478.656C151.343,478.758 150.156,480.216 149.062,479.906C148.406,479.722 147.817,478.038 147.312,477.468C146.764,476.851 145.901,476.304 146.031,474.812C146.33,471.371 148.721,470.161 149.937,469.406C150.658,468.959 151.481,468.637 152.281,468.625ZM173.344,465.656C174.239,465.639 175.407,465.682 176.907,465.719C176.992,465.721 184.691,466.191 191.313,467.188C195.992,467.891 200.134,469.203 200.688,469.344C204.719,470.38 210.509,472.439 214.438,474.469C215.588,475.063 217.186,475.287 217.782,475.938C218.975,477.241 218.118,479.282 216.188,479.563C214.484,479.81 212.056,478.495 207.563,476.813C202.763,475.017 196.907,472.975 191.032,471.719C190.024,471.503 186.149,470.396 182.094,469.969C176.879,469.42 171.389,469.535 171.344,469.375C170.472,466.309 170.66,465.706 173.344,465.656ZM315.594,466.656C318.412,466.548 320.49,467.701 320.219,468.719C320.112,469.117 320.193,469.667 319,469.844C316.668,470.19 315.529,471.558 313.781,472.594C312.112,473.582 309.927,474.444 307.468,474.782C306.505,474.913 305.632,475.221 304.53,475.032C303.854,474.915 303.868,473.692 304.124,473.282C304.564,472.57 305.53,472.645 306.468,472.407C308.674,471.848 311.154,470.086 312.999,468.626C313.965,467.861 314.53,466.696 315.594,466.656ZM276.188,466.656C276.443,466.662 276.692,466.694 276.938,466.75C278.138,467.022 282.151,467.907 284.688,469.219C285.084,469.424 287.143,470.972 289.001,472.188C292.247,474.312 291.035,474.844 289.564,474.313C288.945,474.088 288.043,473.301 286.939,472.719C285.327,471.867 283.428,471.158 282.439,470.625C281.061,469.882 279.769,468.632 278.095,468.344C275.806,467.949 273.447,468.996 271.876,469.844C271.02,470.305 270.385,470.402 269.438,471.219C268.673,471.878 266.863,473.302 267,472.125C267.021,471.958 267.611,471.405 267.688,471.125C267.747,470.903 268.938,470.375 270.219,469.406C272.387,467.767 274.399,466.618 276.188,466.656ZM171.594,455.5C173.428,455.434 176.103,455.751 179.719,456.125C184.103,456.578 189.657,456.771 194.344,458.344C198.451,459.721 203.324,460.283 208.25,461.813C217.477,464.679 226.518,468.341 228.406,468.907C231.555,469.851 227.855,470.778 226.437,471.97C224.612,473.501 223.512,474.403 221.343,474.001C220.464,473.838 216.36,471.929 210.968,469.845C201.028,466.004 192.288,463.604 181.593,462.251C178.677,461.883 175.099,462.748 173.28,462.564C170.039,462.236 169.372,461.156 169.155,460.533C167.845,456.768 168.536,455.61 171.594,455.5ZM150.875,458.531C151.793,458.541 153.312,461.673 153.125,462.562C152.893,463.673 151.415,466.235 147.219,468.687C145.92,469.446 144.774,470.241 144,469.875C141.766,468.815 142.646,465.695 144.063,463.625C144.853,462.47 146.452,461.205 147.438,460.031C147.728,459.685 149.671,458.52 150.875,458.531ZM174.5,445.531C174.991,445.51 175.547,445.511 176.156,445.531C181.859,445.719 191.999,447.615 197.406,448.781C208.147,451.099 219.55,454.717 227.437,458.875C228.86,459.625 235.54,461.414 237.343,463.875C238.577,465.56 234.064,467.78 232.187,468.313C231.481,468.513 229.892,467.473 228.812,467.063C224.363,465.374 217.893,461.642 214.593,460.532C212.575,459.853 203.695,456.46 194.53,454.501C182.747,451.982 169.455,451.713 169.592,450.97C170.331,446.964 171.061,445.677 174.5,445.531ZM275.844,445.813C277.765,445.876 280.085,449.613 279.688,450.282C279.517,450.57 277.086,448.618 275.094,448.469C274.158,448.4 272.619,449.585 270.531,451C267.839,452.823 263.792,455.062 260.625,457.344C257.076,459.899 254.195,462.95 252.469,463.344C252.15,463.416 251.929,462.799 251.688,462.719C250.709,462.397 268.771,451.349 269.407,450.719C270.902,449.233 273.348,447.131 275.063,446.031C275.312,445.871 275.57,445.804 275.844,445.813ZM201.719,410.313C203.826,410.042 204.901,413.278 206.938,417.657C208.287,420.556 210.577,423.882 212.001,427.313C213.094,429.949 213.764,432.626 215.064,434.938C216.504,437.501 216.044,440.443 216.783,442.344C217.604,444.459 219.44,446.457 219.846,446.469C219.909,446.471 224.256,446.635 229.971,448.938C237.623,452.023 246.704,456.228 248.127,458.001C248.75,458.777 247.584,460.005 246.033,460.751C243.206,462.109 242.994,462.515 242.47,462.782C241.866,463.092 238.705,460.652 227.689,455.469C224.338,453.893 220.489,452.476 216.564,451.125C214.91,450.557 206.779,447.258 198.283,445.375C190.608,443.674 182.451,443.454 179.814,443.125C179.206,443.049 179.137,442.442 179.158,442.406C179.859,441.148 181.937,440.789 184.221,440.312C187.064,439.718 190.367,439.19 193.471,439.437C197.426,439.752 200.546,440.857 200.69,440.875C203.616,441.222 215.197,447.086 215.19,443.656C215.185,441.564 214.096,439.508 213.221,437.468C213.083,437.15 210.087,431.785 207.315,425.78C203.967,418.533 200.83,410.428 201.719,410.313ZM149.313,450.094C149.575,450.091 149.799,450.118 150.032,450.188C151.012,450.482 150.749,451.181 150.72,451.876C150.676,452.923 150.181,454.441 148.689,455.782C147.793,456.588 146.064,457.202 145.189,457.938C144.048,458.897 143.785,459.882 142.845,460.344C142.249,460.636 141.593,460.532 141.251,460.532C141.251,457.645 141.301,456.284 143.407,453.719C144.988,451.792 147.478,450.111 149.313,450.094ZM395.531,428.813C397.987,428.737 400.497,429.139 402.687,430.032C404.179,430.64 408.7,432.697 408,435.345C407.863,435.861 407.013,437.35 405.812,437.908C403.671,438.902 400.85,439.072 402.187,440.658C402.798,441.385 404.848,441.217 406.812,441.596C410.833,442.372 415.998,443.486 418.187,445.534C422.254,449.339 421.205,455.055 418.031,457.44C415.858,459.071 412.165,458.43 409.156,458.628C407.461,458.738 405.486,460.242 404.093,460.191C403.009,460.151 402.465,458.784 401.499,457.472C399.941,455.357 398.489,452.576 398.061,451.878C397.206,450.488 396.801,448.874 395.936,448.628C395.063,448.379 394.733,449.805 394.155,451.003C393.577,452.202 392.725,453.147 392.499,453.034C387.801,450.717 389.441,440.636 390.811,439.846C391.23,439.605 391.014,437.967 390.936,436.502C390.866,435.209 390.987,434.066 390.28,434.158C390.083,434.183 387.884,435.38 385.686,437.127C382.021,440.039 377.683,444.232 376.811,444.565C374.864,445.305 374.61,443.766 374.28,443.44C373.434,442.605 375.987,440.822 377.436,439.784C378.512,439.013 379.511,437.43 380.999,436.221C382.383,435.097 383.799,433.649 386.968,431.408C389.278,429.773 392.373,428.91 395.531,428.813ZM243.563,445.531C246.528,445.503 250.732,447.616 253.969,449.406C256.407,450.756 258.484,451.715 258.063,452.531C256.838,454.902 254.092,455.952 251.532,455.437C249.928,455.115 248.613,453.765 247.126,452.999C245.674,452.25 244.138,452.039 243.376,451.093C242.769,450.337 243.446,449.655 243.376,448.874C243.265,447.653 242.601,445.541 243.563,445.531ZM370.469,418.594C370.634,418.602 370.794,418.666 370.907,418.782C371.911,419.823 372.922,421.45 371.97,422.657C370.955,423.94 367.87,424.822 366.251,426.126C362.261,429.342 359.92,430.922 355.532,434.001C353.941,435.115 352.373,434.466 351.876,434.251C351.69,434.172 351.463,433.668 352.032,433.282C353.118,432.548 355.584,431.66 356.157,430.782C356.754,429.868 354.743,429.533 353.907,429.876C350.853,431.128 343.721,435.978 338.126,436.72C338.105,436.723 332.706,438.135 327.47,440.783C320.839,444.134 314.022,448.91 313.814,449.033C310.472,450.985 307.25,452.245 305.533,453.221C304.708,453.69 304.48,454.311 303.502,453.815C302.281,453.198 300.656,451.616 301.033,451.065C301.951,449.725 307.528,450.508 312.596,447.534C314.084,446.66 315.749,444.091 317.721,443.096C320.299,441.797 323.526,441.756 326.284,440.002C330.41,437.376 334.602,434.699 338.534,432.721C339.833,432.067 343.421,429.76 347.878,428.69C348.932,428.437 349.81,428.935 350.972,429.065C352.208,429.204 353.727,428.961 354.878,428.44C358.566,426.77 361.54,424.413 364.347,422.596C366.907,420.934 369.312,418.543 370.469,418.594ZM241.156,436.281C241.987,436.249 243.837,437.154 245.562,437.781C247.196,438.374 248.734,438.57 249.187,438.719C251.899,439.606 254.723,441.27 257.625,442.5C261.124,443.985 264.588,445.088 266.219,446.875C266.814,447.527 265.459,448.351 264.719,449.688C264.31,450.428 262.997,449.954 262.156,449.688C261.891,449.604 259.271,448.872 256.093,447.532C254.541,446.879 249.722,444.612 246.062,442.469C245.076,441.892 241.075,440.049 240.968,439.344C240.771,438.047 240.22,436.761 240.874,436.344C240.948,436.297 241.037,436.286 241.156,436.281ZM146,442.938C146.621,442.948 147.293,442.975 147.875,442.938C149.66,442.823 149.375,444.885 147.781,446.469C146.784,447.458 144.244,448.387 142.718,448.938C140.021,449.915 140.112,447.689 141.312,446C141.857,445.234 142.985,444.878 143.562,444.469C144.021,444.142 143.893,443.299 144.343,443.125C144.812,442.945 145.378,442.928 146,442.938ZM226.781,418.25C227.648,418.238 232.585,424.479 234.781,434.156C234.916,434.753 235.688,437.687 236.844,440.562C238.425,444.503 240.386,448.592 239.157,448.937C237.504,449.401 237.31,447.549 236.344,445.937C233.857,441.786 231.596,436.835 229.781,432.437C228.286,428.81 225.567,421.517 226.656,418.343C226.676,418.287 226.724,418.251 226.781,418.25ZM299.656,443.188C299.963,443.168 300.193,443.256 300.375,443.469C300.995,444.195 301.407,444.046 301.5,444.375C301.734,445.214 300.159,446.402 299.406,446.969C296.844,448.896 297.385,448.919 294,448.407C291.681,448.054 290.092,447.183 290.219,446.501C290.394,445.563 293.012,445.648 295.125,444.907C297.228,444.169 298.734,443.245 299.656,443.188ZM212.25,412.469C212.806,412.379 213.725,412.88 214.281,413.063C219.552,414.79 224.659,429.904 226.219,434.844C227.764,439.737 229.595,445.245 228.563,445C228.14,444.9 226.51,445.142 224.282,442.125C222.121,439.2 219.893,432.707 219.344,430.062C219.004,428.428 216.703,421.653 214.719,417.718C213.271,414.847 211.961,414.604 211.813,413.468C211.723,412.785 211.916,412.522 212.25,412.469ZM306.563,439.844C306.921,439.86 307.231,440.012 307.438,440.063C307.465,440.07 308.087,440.222 308.282,440.813C308.474,441.403 308.255,442.441 308.282,443.094C308.31,443.779 308.592,444.5 307.563,444.5C307.24,444.5 306.918,444.53 306.594,444.5C306.562,444.497 305.907,444.563 305.469,444.031C304.905,443.348 304.615,441.876 305.5,440.437C305.8,439.949 306.203,439.828 306.563,439.844ZM292.75,437.219C293.914,437.213 295.291,437.633 295.75,437.75C297.797,438.274 296.838,438.825 295.687,439.656C294.299,440.659 292.126,441.354 291.593,441.906C291.154,442.362 290.089,442.408 289.562,442.687C287.978,443.523 286.63,444.209 284.906,443.968C284.665,443.935 282.405,443.162 280.968,442.405C279.532,441.648 279.144,440.712 281.249,440.374C281.582,440.321 284.282,439.764 287.468,438.968C289.637,438.426 290.758,437.454 292.249,437.249C292.405,437.229 292.583,437.22 292.75,437.219ZM236,424.281C237.335,424.359 244.216,427.478 245.094,427.844C249.643,429.739 255.626,433.575 256.469,434.157C258.906,435.838 264.149,438.437 268.563,439.907C270.957,440.705 275.841,441.049 274.407,441.188C274.386,441.191 274.611,442.98 272.969,443.344C271.23,443.732 268.692,443.522 267.844,443.469C267.791,443.465 262.435,441.986 257.469,439.969C252.656,438.013 248.309,435.475 247.688,435.188C244.946,433.923 238.72,431.616 236.407,427.813C235.729,426.699 234.961,424.862 235.813,424.313C235.849,424.289 235.911,424.276 236,424.281ZM384.375,426.813C385.207,426.765 385.809,427.033 385.906,427.157C386.051,427.341 384.315,429.798 382.218,432.595C381.232,433.91 379.611,434.788 378.343,435.939C377.057,437.106 371.035,440.611 370.655,441.408C370.472,441.789 369.42,441.25 369.186,440.752C368.965,440.283 369.331,439.47 369.436,439.221C370.165,437.497 372.831,435.247 374.717,433.877C375.755,433.122 376.91,431.728 378.248,431.127C379.86,430.403 381.304,428.153 382.686,427.346C383.293,426.989 383.875,426.841 384.375,426.813ZM314.813,436.219C315.791,436.215 315.934,437.897 315.907,438.907C315.891,439.449 315.642,439.28 315.126,439.657C314.952,439.782 314.777,439.908 314.626,440.001C312.825,441.085 312.394,439.852 312.251,437.313C312.2,436.447 313.153,436.226 314.813,436.219ZM194.719,430.406C195.002,430.4 195.289,430.407 195.625,430.437C197.142,430.573 201.433,430.624 203.906,432.5C208.057,435.65 211.988,438.985 205.437,438.5C202.716,438.298 199.695,437.226 196.781,436.594C194.514,436.103 192.166,436.167 190.937,435.219C189.501,434.112 189.947,433.02 191.156,431.969C191.923,431.3 192.732,430.447 194.719,430.406ZM322.313,432.563C322.598,432.567 322.842,432.569 322.938,432.594C323.763,432.818 323.75,433.452 323.782,433.875C323.848,434.763 322.642,436.277 321.376,436.875C320.51,437.282 319.501,437.039 319.251,436.719C318.283,435.486 319.561,433.451 319.939,432.844C320.068,432.635 321.454,432.552 322.313,432.563ZM104.406,391.375C107.055,391.215 114.877,394.502 117.156,395.906C120.427,397.922 123.215,400.772 126,403.187C128.604,405.446 131.846,408.726 135.094,411.312C137.514,413.239 141.033,414.827 142.688,415.843C143.934,416.61 143.668,417.034 143.563,417.156C143.2,417.57 137.74,414.914 129.063,409.75C123.135,406.223 117.433,402.469 116.5,401.906C112.942,399.761 108.968,398.901 106.531,397.343C104.912,396.31 103.913,395.341 103.75,395.062C103.139,394.015 103.285,392.894 102.594,392.906C100.84,392.939 99.555,392.788 98.906,392.843L98.875,392.843C98.802,392.856 95.446,393.28 93.125,394.531C90.842,395.76 89.334,397.51 89.375,397.781C89.525,398.778 90.818,399.351 91.719,400.125C93.323,401.502 95.053,402.842 96.407,403.688C99.896,405.868 104.059,408.419 107.845,411.001C117.019,417.258 124.91,423.911 125.751,424.501C132.43,429.193 139.945,432.876 139.782,435.064C139.715,435.963 120.008,436.09 117.938,436.064C112.007,435.987 107.241,434.489 97.469,429.72C92.841,427.462 86.777,423.286 83.563,417.532C80.264,411.626 81.294,405.132 84.719,399.782C85.701,398.246 86.282,396.952 87.563,395.876C88.384,395.187 89.516,394.319 90.969,393.907C92.217,393.553 94.79,393.504 95.782,393.219L98.345,392.469C98.681,392.342 99.295,392.329 100.033,392.188C101.321,391.938 102.904,391.466 104.406,391.375ZM279.656,426.938C280.292,426.956 281.168,427.406 282,427.907C282.388,428.141 286.75,430.703 286.219,431.501C285.609,432.418 283.677,432.946 282.031,433.157C280.831,433.311 279.789,433.501 279.468,432.438C278.156,428.097 278.597,426.907 279.656,426.938ZM327.688,429.375C328.097,429.323 328.472,429.479 328.719,429.438C330.012,429.218 329.82,430.282 330.625,430.501C330.781,430.543 331.106,430.923 331,431.064C330.822,431.299 330.022,431.349 329.562,431.752C328.988,432.253 328.578,433.051 327.562,432.502C326.586,431.978 326.087,430.244 327.281,429.502C327.416,429.416 327.551,429.393 327.688,429.375ZM235.844,420.219C236.578,420.21 238.962,420.678 241.719,421.688C245.331,423.012 249.464,425.351 252.875,427.094C256.395,428.892 259.147,430.073 258.063,430.563C257.804,430.68 257.136,430.599 256.469,430.532C256.4,430.525 251.9,428.893 247.156,426.813C243.619,425.261 240.557,423.297 238.312,421.969C236.724,421.03 235.229,420.496 235.624,420.25C235.657,420.229 235.739,420.221 235.844,420.219ZM337.063,426.031C337.229,426.029 337.413,426.066 337.594,426.125C338.09,426.285 338.889,426.82 338.688,427.469C338.515,428.023 337.458,427.97 336.813,428.5C336.55,428.716 335.477,429.611 334.344,429.938C333.627,430.143 333.625,429.817 333.281,429.438C333.046,429.179 332.279,429.037 332.531,428.375C332.801,427.665 334.392,426.882 335.875,426.375C336.157,426.277 336.563,426.037 337.063,426.031ZM298.125,421.031C299.238,421.115 300.071,422.748 300.375,423.812C300.435,424.024 300.938,426.099 301.344,427.625C302.484,431.932 296.32,427.271 295.906,426.25C295.4,424.998 295.674,423.106 296.469,422.062C297.07,421.272 297.618,420.993 298.125,421.031ZM269.906,420.469C270.686,420.463 271.527,421.281 271.906,423.438C272.213,425.186 272.399,428.262 271.718,428.969C271.31,429.395 270.228,428.31 269.687,427.406C269.368,426.875 268.194,422.375 268.437,421.75C268.73,420.995 269.299,420.474 269.906,420.469ZM265.781,365.25C266.141,364.916 270.241,374.55 274.562,384.531C277.76,391.922 281.95,399.933 284.687,406.156C287.179,411.821 288.366,416.052 288.5,416.562C288.757,417.538 288.58,420.265 289.969,422.5C292.239,426.157 293.705,428.969 291.594,428.969C291.594,428.439 284.906,425.823 284.906,424.844C284.472,424.844 277.792,419.66 277.656,419.656C277.345,419.646 275.848,416.58 274.687,411.281C273.525,405.982 272.717,398.43 271.124,391.437C268.567,380.208 265.295,369.173 265.749,365.312C265.754,365.281 265.77,365.261 265.781,365.25ZM196.031,422.438C197.132,422.354 198.474,422.637 199.781,423.219C205.43,425.739 205.341,427.407 203.094,427.969C202.541,428.107 199.149,427.864 196.656,427.688C195.258,427.59 194.15,427.785 193.968,427.407C193.197,425.816 193.474,424.69 193.749,423.907C194.075,422.981 194.931,422.521 196.031,422.438ZM304.969,416.875C305.779,416.902 306.239,417.533 306.907,418.313C307.331,418.809 307.443,419.941 307.938,420.751C308.277,421.307 309.077,421.511 309.157,422.095C309.725,426.249 307.958,426.998 306.501,426.376C305.72,426.043 305.404,425.015 304.751,424.126C303.502,422.431 302.247,420.575 302.782,420.313C303.541,419.94 302.998,418.321 303.501,417.594C303.848,417.091 303.435,417.28 304.001,417.063C304.37,416.921 304.698,416.865 304.969,416.875ZM252.156,408.406C252.546,408.353 253.094,408.396 253.687,408.562C255.174,408.975 256.812,410.253 256.968,410.312C257.624,410.555 260.114,411.826 261.999,413.875C263.309,415.297 264.061,417.014 264.687,418.625C265.115,419.729 265.673,420.813 265.593,421.625C265.507,422.48 265.52,424.093 264.343,424.344C262.511,424.736 259.404,422.43 257.155,418.938C254.471,414.772 253.027,409.616 252.342,409.313C251.329,408.865 251.507,408.494 252.156,408.406ZM312.281,412.938C312.384,412.948 315.594,416.378 316.437,418.751C316.764,419.679 317.265,420.333 316.406,421.22C313.726,423.986 310.318,419.22 309.718,416.751C309.671,416.562 309.935,414.849 310.624,413.813C311.097,413.105 311.967,412.906 312.281,412.938ZM366.188,384.063C368.459,383.975 370.237,384.215 370.813,384.969C371.642,386.053 371.17,387.864 371.532,389.719C372.71,395.778 372.779,404.551 372.22,408.875C372.161,409.331 371.538,410.353 370.439,410.844C368.722,411.61 366.072,411.842 364.126,412.625C360.151,414.229 357.438,415.795 355.47,417C352.134,419.045 349.007,422.075 348.439,421.75C347.165,421.021 348.032,418.85 348.064,417.187C348.163,411.982 348.851,405.979 349.47,401.499C349.706,399.782 351.678,388.812 353.095,387.499C355.212,385.535 358.493,385.014 361.72,384.53C363.274,384.299 364.824,384.115 366.188,384.063ZM195.844,413.344C197.648,413.213 198.19,413.901 198.813,414.938C199.441,415.985 200.338,417.36 199.876,418.969C199.591,419.959 198.081,419.309 197.032,419.125C196.848,419.092 195.039,418.701 194.126,417.281C193.647,416.539 193.326,414.916 193.97,413.968C194.407,413.323 194.207,413.603 195.001,413.468C195.312,413.416 195.586,413.362 195.844,413.344ZM319,409.406C319.875,409.433 320.82,409.835 320.938,410.469C321.38,412.877 322.744,414.024 323.157,414.782C323.786,415.938 323.437,416.577 322.719,417.001C322.228,417.291 321.459,417.358 321.125,417.876C320.482,418.868 316.297,411.255 317.719,409.782C317.987,409.504 318.475,409.391 319,409.406ZM380.781,410.5C381.142,410.399 381.698,411.041 382.312,411.844C382.987,412.725 384.312,413.981 384.687,415.063C385.39,417.09 383.673,417.758 382.406,417.501C381.539,417.325 380.76,416.167 380.687,415.626C380.18,411.957 380.316,410.629 380.781,410.5ZM239.281,411.781C240.089,411.771 241.161,412.136 241.687,412.25C242.646,412.456 242.68,413.892 242.656,414.531C242.583,416.456 243.094,416.549 242,416.437C238.162,416.042 239.669,416.988 238.437,413.593C237.924,412.178 238.474,411.791 239.281,411.781ZM157.656,407.25C158.571,407.289 159.318,407.932 159.656,408.313C160.066,408.777 160.71,409.706 160.594,410.469C160.515,410.993 159.894,410.879 159.594,411.375C159.059,412.26 158.732,413.671 158.438,414.156C158.262,414.447 157.929,413.894 157.438,413.937C156.498,414.019 155.087,414.81 154.688,414.5C154.377,414.26 153.885,413.701 153.219,413.094C151.22,411.272 147.615,408.774 148.156,408.469C148.906,408.047 150.141,409.276 151.719,409.813C152.292,410.008 153.636,410.137 154.844,409.657C155.615,409.348 155.96,407.805 156.688,407.469C157.023,407.314 157.351,407.237 157.656,407.25ZM324.594,404.938C325.206,404.959 326.388,407.26 327.438,409.032C327.946,409.891 329.54,412.055 329.251,412.751C329.169,412.946 329.659,413.558 329.063,413.345C328.8,413.252 328.319,413.599 328.094,413.501C327.119,413.082 326.679,412.154 325.938,411.251C325.354,410.538 324.405,409.727 324.25,407.97C324.052,405.735 324.226,404.924 324.594,404.938ZM259.813,364.531C260.178,364.448 260.618,364.754 260.938,365.719C261.501,367.416 260.042,366.918 260.688,369.657C261.919,374.884 264.688,383.932 264.751,384.22C264.98,385.261 265.67,388.224 266.001,391.72C266.251,394.355 266.081,397.251 266.532,400.126C267.167,404.165 268.882,408.517 269.188,410.939C269.494,413.361 268.375,413.839 267.157,412.283C266.019,410.83 264.969,405.999 264.001,399.97C263.271,395.422 263.027,389.65 262.095,384.282C261.271,379.548 259.86,375.044 259.407,371.563C259.009,368.495 259.136,366.372 259.157,365.719C259.176,365.095 259.448,364.614 259.813,364.531ZM231.563,409C232.189,408.948 232.778,409.144 233.032,409.563C233.321,410.042 233.115,411.197 232.688,412.876C232.514,413.56 230.563,412.253 230.125,411.876C229.588,411.413 229.534,410.57 229.937,409.907C230.284,409.336 230.937,409.052 231.563,409ZM271.063,363.688C271.768,363.678 274.228,368.042 276.376,372.407C279.515,378.788 283.501,386.54 284.314,388.157C286.996,393.495 289.122,398.776 290.47,402.032C292.649,407.298 295.712,410.132 291.595,411.345C290.906,411.548 288.761,407.113 286.814,402.439C283.566,394.649 280.048,385.058 279.72,384.439C278.471,382.082 268.856,366.515 270.939,363.751C270.968,363.709 271.016,363.688 271.063,363.688ZM220.875,405.625C221.653,405.58 222.242,405.941 222.469,406.563C222.616,406.967 222.358,407.61 222.375,408.063C222.39,408.473 222.732,409.223 222.656,409.438C222.499,409.877 221.824,409.522 221.531,409.532C219.958,409.587 219.936,409.275 219.843,408.594C219.559,406.522 219.737,405.924 220.031,405.813C220.325,405.702 220.615,405.641 220.875,405.625ZM255.094,365.063C257.646,365.328 256.916,370.028 257.063,371.501C257.469,375.567 258.441,381.55 258.938,384.314C259.892,389.628 260.368,393.754 261.094,396.627C262.327,401.51 264.546,404.245 262.969,409.315C262.74,410.047 258.49,406.524 254.406,403.565C249.41,399.946 246.948,398.366 246.125,395.627C245.55,393.717 246.111,386.504 245.75,379.596C245.455,373.966 244.055,368.42 244.906,367.002C246.227,364.805 252.423,365.346 254.531,365.096C254.732,365.07 254.923,365.045 255.094,365.063ZM212.531,403.219C212.827,403.209 213.089,403.274 213.25,403.563C213.495,404.004 213.151,404.844 213.062,405.688C212.879,407.405 211.072,408.172 210.312,406.688C209.701,405.495 209.966,404.377 210.062,403.813C210.16,403.233 210.816,403.338 211.593,403.313C211.896,403.303 212.235,403.229 212.531,403.219ZM277.313,363.188C277.644,363.156 278.11,363.35 278.626,363.782C279.67,364.655 281.091,367.047 282.501,369.188C285.658,373.983 287.191,377.834 289.876,383.063C292.308,387.799 294.249,392.34 296.345,396.907C297.367,399.137 299.044,401.344 299.658,403.626C300.901,408.255 297.069,406.735 294.877,403.657C294.147,402.632 294.059,401.16 293.752,400.626C292.877,399.108 292.51,397.231 291.689,395.407C289.507,390.559 287.021,385.177 285.251,381.001C283.044,375.792 280.891,371.938 280.251,371.001C276.55,365.588 276.32,363.283 277.313,363.188ZM199.469,398.969C199.527,398.944 199.585,398.957 199.657,398.969C201.188,399.223 200.963,398.86 202.688,399.875C203.574,400.396 203.417,401.566 203.126,402.563C202.888,403.377 203.999,403.657 200.751,403.657C199.168,403.656 198.598,399.35 199.469,398.969ZM286.406,364.688C287.163,364.567 288.706,365.538 290.187,366.876C291.924,368.444 292.708,370.608 293.687,372.032C293.978,372.454 298.006,382.922 301.843,390.938C304.468,396.423 307.216,400.057 307.093,400.501C306.123,403.992 303.255,402.73 302.062,400.47C301.629,399.654 301.29,398.157 300.624,396.751C298.43,392.117 295.603,384.9 292.686,378.47C290.607,373.887 287.761,370.306 286.592,367.689C285.833,365.992 285.769,365.094 286.123,364.783C286.198,364.717 286.298,364.705 286.406,364.688ZM167.438,394.938C167.711,394.932 168.007,395.051 168.251,395.501C168.644,396.228 168.504,397.417 168.564,398.626C168.61,399.557 169.237,400.171 168.564,400.876C167.898,401.574 166.028,401.343 162.97,402.032C162.225,402.2 162.578,402.473 161.814,402.563C159.839,402.793 156.902,401.979 155.72,400.5C154.984,399.581 155.183,398.267 155.501,397.094C155.759,396.147 157.022,397.929 158.657,399.344C160.827,401.222 161.957,402.612 163.47,400.5C164.174,399.518 165.304,399.289 165.533,398.687C165.547,398.652 165.565,395.044 166.752,395.062C166.915,395.064 167.163,394.943 167.438,394.938ZM188.125,395.938C188.583,395.813 189.316,396.391 190.188,396.751C190.962,397.071 191.901,396.964 192.376,397.626C193.116,398.662 192.946,400.315 191.813,401.032C191.14,401.457 190.619,400.741 189.875,400.563C189.22,400.407 188.336,400.838 188,400.282C187.575,399.581 187.852,398.438 187.719,397.782C187.615,397.272 187.666,396.282 187.938,396.032C187.99,395.982 188.06,395.955 188.125,395.938ZM177.125,394.906C177.522,394.84 178.021,395.09 178.5,395.125C180.985,395.307 180.555,395.807 180.625,397.438C180.69,398.942 180.235,399.233 179.312,399.344C178.404,399.453 177.437,399.698 177.281,399.344C176.737,398.119 175.959,395.873 176.781,395.094C176.894,394.987 176.992,394.929 177.125,394.906ZM293.156,364.969C293.216,364.956 293.298,364.966 293.406,364.969C294.133,364.989 295.903,364.888 297.219,365.813C297.977,366.348 299.78,368.708 301.75,372.001C303.983,375.733 306.475,380.642 308.813,385.189C312.575,392.509 315.624,398.999 312.782,398.97C312.73,398.969 310.392,398.949 308.907,396.564C307.787,394.767 307.5,392.19 306.469,390.126C303.489,384.168 295.552,375.796 293.969,368.313C293.407,365.66 292.737,365.059 293.156,364.969ZM188.625,380.625C193.505,380.756 199.833,382.101 201.75,382.563C206.716,383.759 211.022,385.907 213.594,386.501C214.846,386.79 216.396,388.04 219.063,389.095C222.716,390.54 227.706,392.044 229.969,393.939C232.397,395.971 231.709,398.078 229.094,397.408C228.516,397.261 220.826,394.827 212.156,392.127C208.565,391.008 204.377,389.927 200.781,388.846C196.814,387.653 192.084,387.68 188.718,386.44C179.79,383.147 181.807,380.943 186.624,380.659C187.246,380.619 187.928,380.606 188.625,380.625ZM303.656,366.781C306.116,366.609 308.148,370.267 310.375,374.156C310.463,374.31 311.689,376.023 312.594,378.25C313.392,380.215 313.802,382.589 314.875,384.688C315.973,386.836 319.973,391.26 319.5,393.376C318.966,395.769 317.129,394.778 315.687,392.251C313.833,389.003 312.373,383.624 312.281,383.938C312.098,384.561 306.066,374.772 306.062,374.625C306.026,373.336 305.14,372.832 304.624,371.875C303.561,369.9 302.763,368.696 302.905,367.844C302.97,367.457 302.81,366.84 303.656,366.781ZM241.375,367.844C241.705,367.77 242.139,368.108 242.313,368.938C242.555,370.089 242.251,372.35 242.563,374.469C242.991,377.384 242.87,380.877 243.126,383.75C243.284,385.521 243.005,387.318 242.876,388.813C242.614,391.827 242.089,393.631 240.938,391.532C240.62,390.95 240.855,389.262 240.438,388.094C239.769,386.223 240.042,384.397 240.094,382.531C240.159,380.133 240.134,377.705 240.219,375.406C240.304,373.113 240.466,370.76 240.969,368.406C241.036,368.087 241.177,367.889 241.375,367.844ZM329.781,381.5C330.2,381.518 330.542,381.716 330.719,382.188C332.742,387.6 325.319,393.268 324.438,392.282C322.646,390.277 320.584,388.651 321.875,386.469C322.818,384.877 324.618,383.598 325.188,383.406C326.457,382.979 328.524,381.449 329.781,381.5ZM132.906,348.094C133.53,347.92 133.108,352.399 132.969,355.657C132.869,357.97 132.46,360.167 132.281,363.001C131.877,369.419 132.668,376.509 134.094,382.22C135.018,385.921 136.65,390.068 136.188,390.376C135.255,390.999 134.687,389.817 133.313,387.032C131.895,384.157 129.682,379.536 129.157,370.313C128.969,366.999 128.812,359.807 130.345,354.688C131.754,349.973 132.531,348.197 132.906,348.094ZM167.594,381.656C167.933,381.663 168.256,381.691 168.594,381.75C169.719,381.948 171.878,382.199 172.219,383.25C172.379,383.746 173.151,385.021 172.25,385.625C171.907,385.855 169.44,385.734 168.031,385.906C164.563,386.332 161.039,386.88 159.875,387.156C157.623,387.688 155.828,388.625 154.5,389.062C153.649,389.341 152.939,389.285 152.625,389.187C151.947,388.978 151.835,388.429 152.281,388.312C157.201,387.029 162.502,381.553 167.594,381.656ZM236.469,370.219C236.815,370.073 237.266,373.297 237.282,373.5C237.489,376.102 237.351,377.906 237.313,380.688C237.301,381.507 236.625,382.295 236.938,383.344C237.008,383.58 237.304,388.518 235.938,385.094C235.377,383.69 235.865,380.966 235.813,380.313C235.629,378.049 235.259,376.118 235.407,374.282C235.509,373.026 235.992,371.821 236.313,370.501C236.356,370.322 236.419,370.24 236.469,370.219ZM211.406,343.406C211.879,343.349 213.278,344.996 214.812,347.406C216.743,350.439 217.817,355.388 219.968,359.25C221.541,362.076 223.19,365.601 224.624,367.094C224.772,367.248 227.297,370.561 228.874,371.375C229.21,371.547 229.388,369.896 231.218,370.156C233.359,370.462 233.594,370.98 233.812,371.594C234.226,372.764 232.913,374.332 232.906,375.813C232.897,377.524 233.455,379.557 232.187,379.282C231.762,379.19 227.971,376.704 225.937,372.657C224.325,369.45 222.304,366.686 220.937,364.094C218.564,359.596 217.244,355.723 215.812,352.813C214.548,350.247 213.095,348.477 212.406,347C211.242,344.506 211.038,343.45 211.406,343.406ZM311.844,368.875C315.546,368.85 327.767,372.849 328.344,373.906C328.358,373.933 325.757,374.951 323.406,376.25C321.124,377.51 320.182,378.85 319.031,379.031C317.092,379.338 314.482,377.388 313.125,375C312.225,373.416 312.401,371.469 311.75,370.5C311.415,370.002 310.901,368.881 311.844,368.875ZM96.531,276.563C97.414,276.367 100.266,290.751 100.437,290.751C100.437,296.071 109.697,319.251 113.875,319.251C113.875,328.803 98.906,330.121 98.906,335.814C92.243,335.814 103.531,349.798 103.531,344.064C106.12,344.064 118.531,336.397 118.531,338.408C117.684,338.408 117.311,339.939 116.468,339.939C116.468,341.131 105.062,343.607 105.062,345.658C101.449,345.658 95.766,353.939 89.593,353.939C89.593,347.773 95.691,278.345 96.281,278.345C96.281,277.123 96.367,276.599 96.531,276.563ZM136.094,268.5C137.094,268.605 138.71,270.16 137.094,272.656C136.541,273.51 134.957,273.552 134.344,274.281C133.715,275.028 132.631,277.641 132.438,279.875C132.24,282.179 132.956,284.112 133.563,284.875C134.61,286.194 136.063,287.951 137.469,288.781C138.708,289.512 139.989,289.327 139.875,290.406C139.808,291.042 139.495,292.643 138.562,291.969C137.886,291.481 136.986,289.7 136.124,288.875C135.454,288.233 134.798,288.402 134.343,288.812C133.527,289.548 136.145,291.071 135.781,293.375C135.415,295.679 132.074,298.769 131.312,299.375C130.71,299.853 129.983,299.884 129.562,300.313C128.662,301.226 128.791,302.489 129.156,302.907C129.657,303.484 131.136,303.858 131.312,304.72C131.59,306.099 130.675,308.021 129.624,309.658C128.231,311.826 125.784,313.213 123.874,315.033C121.622,317.178 120.253,319.192 118.53,318.752C117.153,318.4 116.081,316.403 115.655,314.533C114.566,309.752 114.967,302.923 116.718,296.377C118.542,289.549 122.239,283.789 123.187,282.471C125.282,279.558 129.447,274.605 132.593,271.44C134.131,269.892 135.109,268.397 136.094,268.5ZM176.969,258.344C177.68,258.041 173.451,263.42 173.031,263.375C172.895,263.36 166.481,270.019 165.562,270.594C164.381,271.334 160.483,274.195 159.843,275.219C159.296,276.095 157.897,277.151 157.03,278.188C156.1,279.299 155.704,280.361 154.936,280.032C154.441,279.82 154.241,278.668 153.936,277.438C153.409,275.311 154.108,275.164 153.623,273.938C152.914,272.146 150.667,269.711 146.654,269.157C145.877,269.05 144.623,268.45 144.341,268.001C140.797,262.322 148.189,262.493 151.06,261.282C153.229,260.368 156.072,260.768 159.091,260.782C162.303,260.796 173.385,259.87 176.969,258.344ZM361.375,231.75C361.539,231.648 363.449,232.204 362,236.875C361.807,237.499 362.277,239.108 361.281,240.531C360.323,241.897 358.523,242.922 356.843,244.656C354.938,246.621 353.095,249.341 351.28,251.75C345.932,258.843 340.511,266.438 338.124,266.438C338.124,265.297 344.244,256.094 344.843,256.094C344.843,254.937 355.6,240.031 355.687,240.031C355.688,239.603 361.106,231.916 361.375,231.75ZM107,166.969C107.077,166.97 107.167,167.005 107.25,167.063C109.104,168.363 109.773,176.774 112.375,184.157C113.738,188.023 115.722,191.657 116.594,195.001C117.174,197.23 116.716,198.633 116.719,199.97C116.724,202.706 111.958,216.22 111.781,216.22C111.781,221.83 104.313,245.854 99.937,243.158C97.245,241.501 102.634,197.51 103.812,194.908C104.592,193.187 104.591,166.919 107,166.969ZM219.438,191.719C220.305,191.742 222.348,194.761 225.219,197.719C226.792,199.34 229.081,200.551 230.188,202.407C232.032,205.498 231.724,209.399 227.782,212.876C225.402,214.973 221.173,216.59 217.907,219.751C213.684,223.837 209.358,229.281 205.344,233.345C200.182,238.569 195.705,241.928 194.594,241.564C193.946,241.351 194.406,237.736 194.844,235.064C195.521,230.921 198.282,223.605 200.125,220.095C202.943,214.73 206.906,209.457 210.25,204.814C215.31,197.786 218.713,192.063 219.281,191.751C219.328,191.724 219.38,191.717 219.438,191.719ZM404.75,187C405.082,186.945 405.281,187.154 405.281,187.75C405.22,187.75 397.031,197.826 397.031,198.094C396.799,198.094 388.218,207.239 388.218,207.969C387.204,207.969 377.401,220.483 376.843,221.407C376.505,221.966 376.294,223.573 374.468,223.907C373.934,224.005 373.187,224.193 372.812,223.782C372.184,223.096 372.074,221.537 371.968,220.938C371.572,218.705 372.834,216.82 373.249,215.688C374.379,212.594 382.03,207.936 382.03,206.907C382.833,206.907 388.749,202 388.749,201.219C389.309,201.219 398.562,192.769 398.562,192.438C399.398,192.438 403.31,187.24 404.75,187ZM118.406,206.188C119.272,205.992 119.635,207.548 119.781,207.844C120.119,208.528 120.84,208.852 120.687,210.375C120.198,215.245 116.606,219.638 114.468,221.25C114.14,221.497 112.976,220.382 113.562,219.344C113.891,218.758 116.426,207.541 118,206.375C118.146,206.267 118.282,206.215 118.406,206.188ZM136.813,185.781C137.14,185.791 137.387,186.063 137.626,186.719C137.699,186.923 137.073,187.25 136.563,187.875C135.817,188.788 134.968,190.209 134.125,191.656C132.758,194.002 130.804,196.362 129.437,198.719C127.735,201.655 126.674,203.903 126.218,203.844C126.135,203.833 124.917,204.49 123.812,203.406C122.329,201.952 122.594,200.263 122.499,198.968C122.402,197.674 122.851,195.771 124.343,194.062C126.656,191.411 130.001,189.745 132.937,188.124C134.991,186.992 136.091,185.759 136.813,185.781ZM313.469,134.563C314.041,134.569 314.356,134.683 314.344,134.969C314.266,136.847 304.902,143.416 295.906,151.219C285.385,160.344 274.895,170.809 273.5,172.219C273.18,172.544 267.561,177.295 261.219,182.782C253.751,189.24 245.157,196.428 242.844,198.72C240.664,200.879 239.102,202.895 238.563,201.72C238.466,201.511 237.625,199.819 237.657,197.689C237.678,196.232 238.506,194.67 238.751,192.783C239.193,189.392 240.559,185.707 240.532,182.345C240.493,177.563 238.032,174.625 238.032,173.189C238.032,170.203 240.459,167.412 242.032,166.564C251.163,161.643 257.275,156.096 264.876,151.783C271.652,147.936 278.652,143.556 286.595,140.564C291.685,138.646 297.204,137.71 303.189,136.501C307.699,135.589 311.749,134.543 313.469,134.563ZM216.688,124.5C216.718,124.498 216.751,124.508 216.782,124.531C217.11,124.779 219.777,128.616 219.157,132.187C218.516,135.872 215.154,139.901 212.563,141.718C211.669,142.343 204.151,151.186 202.063,152.968C201.765,153.223 201.475,153.065 201.438,152.999C200.995,152.215 202.066,148.94 204.282,144.78C206.166,141.243 207.204,138.723 209.032,136.28C210.748,133.986 211.595,131.238 213.22,129.686C215.665,127.352 216.223,124.535 216.688,124.5ZM256.781,93.875C259.661,93.648 246.195,106.488 246.125,106.5C245.689,106.57 236.312,114.991 236.312,115.813C235.121,115.813 227.646,125.248 227.031,126.688C226.767,127.305 225.079,128.58 223.906,127.626C222.952,126.849 222.867,124.043 222.75,121.438C222.607,118.296 223.532,114.516 225.5,114.282C225.928,114.23 230.364,111.821 234.656,109.251C238.233,107.108 256.555,93.893 256.781,93.875Z" style="fill:rgb(47,47,47);fill-rule:nonzero;"/>
    </g>
</svg>
